PathFileType	4	(x/y/z)	S06_SL_Cal_T01
DataRate	CameraRate	NumFrames	NumMarkers	Units	OrigDataRate	OrigDataStartFrame	OrigNumFrames
240	240	5	51	mm	240	600	2399
Frame#	Time	Sternum			R.Acromium			L.Acromium			Top.Head			R.ASIS			L.ASIS			R.PSIS			L.PSIS			R.Great.Tro			L.Great.Tro			R.Iliac.Crest			L.Iliac.Crest			V.Sacral			R.Thigh.Upper.Post			R.Thigh.Lower.Ant			R.Thigh.Lower.Post			R.Thigh.Upper.Ant			R.Knee.Lat			R.Knee.Med			R.Shank.Upper.Post			R.Shank.Lower.Ant			R.Shank.Lower.Post			R.Shank.Upper.Ant			R.Ankle.Lat			R.Ankle.Med			R.Heel.Upper			R.Heel.Med			R.Heel.Lat			R.Toe.Lat			R.Toe.Med			R.Toe.Tip			L.Thigh.Upper.Post			L.Thigh.Lower.Ant			L.Thigh.Lower.Post			L.Thigh.Upper.Ant			L.Knee.Lat			L.Knee.Med			L.Shank.Upper.Post			L.Shank.Lower.Ant			L.Shank.Lower.Post			L.Shank.Upper.Ant			L.Ankle.Lat			L.Ankle.Med			L.Heel.Upper			L.Heel.Med			L.Heel.Lat			L.Toe.Lat			L.Toe.Med			L.Toe.Tip			Cervical.Spine			Back			
		X1	Y1	Z1	X2	Y2	Z2	X3	Y3	Z3	X4	Y4	Z4	X5	Y5	Z5	X6	Y6	Z6	X7	Y7	Z7	X8	Y8	Z8	X9	Y9	Z9	X10	Y10	Z10	X11	Y11	Z11	X12	Y12	Z12	X13	Y13	Z13	X14	Y14	Z14	X15	Y15	Z15	X16	Y16	Z16	X17	Y17	Z17	X18	Y18	Z18	X19	Y19	Z19	X20	Y20	Z20	X21	Y21	Z21	X22	Y22	Z22	X23	Y23	Z23	X24	Y24	Z24	X25	Y25	Z25	X26	Y26	Z26	X27	Y27	Z27	X28	Y28	Z28	X29	Y29	Z29	X30	Y30	Z30	X31	Y31	Z31	X32	Y32	Z32	X33	Y33	Z33	X34	Y34	Z34	X35	Y35	Z35	X36	Y36	Z36	X37	Y37	Z37	X38	Y38	Z38	X39	Y39	Z39	X40	Y40	Z40	X41	Y41	Z41	X42	Y42	Z42	X43	Y43	Z43	X44	Y44	Z44	X45	Y45	Z45	X46	Y46	Z46	X47	Y47	Z47	X48	Y48	Z48	X49	Y49	Z49	X50	Y50	Z50	X51	Y51	Z51	

600	2.4958	759.36	1313.2	315.48	616.4	1543.6	464.62	617.71	1533.8	146.98	678.49	1828.2	307.04	725.12	1065.6	441.09	733.73	1058.7	188.19	528.21	1085.3	341.49	529.82	1088.3	261.32	661.78	1001.3	489.65	635.49	995.41	134	639.57	1142.9	468.68	664.79	1134.9	149.95	514.94	1052.1	304.22	640.19	753	496.23	690.03	667.54	469.66	621.95	666.68	481.46	712.32	755.5	480.94	632.64	551.52	476.03	639.53	543.63	349.55	568.78	328.35	494.12	625.63	260.14	480.08	561.17	251.21	485.28	634.24	335.86	488.63	587.71	112.28	471.92	605.83	112.2	385.17	522.44	74.377	428.62	531.23	43.692	397.81	529.09	43.214	463.34	704.58	36.291	507.02	734.53	44.29	387.45	799.87	54.068	436.38	667.3	733.46	129.55	713.6	645.32	177.15	642.93	646.36	141.9	732.27	737.92	162.28	619.84	551.2	151.33	655.15	543.01	269.22	559.05	326.46	143.49	620.34	262.61	133.73	552.78	254.39	153.44	623.82	334.11	129.04	589.58	111.51	136.71	606.58	108.99	225.47	518.77	72.951	179.38	525.44	46.136	211.73	522.3	47.309	149.67	697.42	45.788	98.908	727.62	43.493	216.31	795.36	55.551	157.46	574.27	1560.8	306.83	525.02	1292.3	307.96
601	2.5	759.35	1313.2	315.47	616.39	1543.6	464.61	617.72	1533.8	146.97	678.51	1828.2	307.04	725.12	1065.6	441.08	733.73	1058.7	188.18	528.21	1085.3	341.49	529.82	1088.3	261.31	661.79	1001.3	489.64	635.48	995.41	134.01	639.57	1142.9	468.67	664.78	1134.9	149.94	514.93	1052.1	304.22	640.19	753	496.23	690.03	667.54	469.65	621.95	666.68	481.46	712.32	755.5	480.94	632.63	551.52	476.03	639.52	543.63	349.54	568.77	328.36	494.12	625.63	260.15	480.08	561.17	251.21	485.28	634.24	335.86	488.62	587.71	112.28	471.92	605.83	112.2	385.17	522.44	74.378	428.62	531.23	43.692	397.81	529.09	43.215	463.34	704.58	36.291	507.02	734.53	44.289	387.45	799.87	54.066	436.38	667.29	733.46	129.55	713.59	645.32	177.14	642.92	646.37	141.9	732.26	737.92	162.27	619.84	551.2	151.32	655.15	543.01	269.22	559.05	326.46	143.49	620.34	262.61	133.73	552.78	254.38	153.44	623.81	334.11	129.04	589.58	111.51	136.71	606.58	108.99	225.47	518.77	72.95	179.38	525.44	46.136	211.73	522.3	47.308	149.67	697.42	45.787	98.907	727.62	43.495	216.31	795.36	55.55	157.46	574.26	1560.8	306.83	525.01	1292.3	307.95
602	2.5042	759.34	1313.2	315.46	616.38	1543.5	464.61	617.72	1533.8	146.96	678.53	1828.2	307.04	725.12	1065.6	441.07	733.72	1058.7	188.17	528.21	1085.3	341.49	529.82	1088.3	261.31	661.79	1001.3	489.63	635.46	995.4	134.02	639.57	1142.9	468.67	664.77	1134.9	149.93	514.93	1052.1	304.22	640.19	753	496.22	690.02	667.54	469.65	621.94	666.68	481.45	712.31	755.5	480.93	632.62	551.53	476.02	639.51	543.63	349.54	568.77	328.36	494.12	625.63	260.15	480.07	561.17	251.22	485.28	634.23	335.86	488.62	587.71	112.28	471.92	605.83	112.2	385.17	522.44	74.379	428.62	531.23	43.693	397.81	529.09	43.216	463.34	704.58	36.291	507.02	734.53	44.289	387.45	799.87	54.065	436.38	667.28	733.46	129.54	713.58	645.32	177.13	642.92	646.37	141.9	732.26	737.92	162.26	619.83	551.2	151.32	655.15	543.01	269.21	559.05	326.46	143.49	620.34	262.61	133.73	552.78	254.38	153.44	623.81	334.11	129.04	589.58	111.51	136.71	606.58	108.99	225.47	518.77	72.949	179.38	525.44	46.136	211.73	522.3	47.306	149.68	697.42	45.786	98.907	727.62	43.497	216.3	795.36	55.55	157.46	574.25	1560.8	306.83	525	1292.3	307.95
603	2.5083	759.33	1313.2	315.44	616.38	1543.5	464.61	617.73	1533.8	146.95	678.54	1828.2	307.04	725.13	1065.6	441.06	733.71	1058.7	188.16	528.21	1085.3	341.49	529.81	1088.3	261.31	661.79	1001.3	489.62	635.45	995.4	134.03	639.58	1142.9	468.66	664.76	1134.9	149.92	514.93	1052.1	304.22	640.19	753	496.22	690.02	667.54	469.64	621.94	666.68	481.44	712.31	755.5	480.92	632.61	551.53	476.02	639.5	543.63	349.53	568.77	328.36	494.12	625.62	260.15	480.07	561.17	251.22	485.28	634.23	335.86	488.62	587.71	112.28	471.92	605.83	112.2	385.17	522.44	74.38	428.62	531.24	43.693	397.81	529.09	43.217	463.34	704.58	36.291	507.02	734.53	44.289	387.45	799.87	54.064	436.38	667.27	733.46	129.54	713.58	645.32	177.12	642.91	646.37	141.89	732.25	737.92	162.25	619.83	551.2	151.32	655.15	543.01	269.21	559.04	326.46	143.48	620.33	262.61	133.72	552.78	254.38	153.43	623.81	334.11	129.03	589.58	111.51	136.71	606.58	108.99	225.47	518.76	72.948	179.38	525.44	46.136	211.73	522.3	47.303	149.68	697.42	45.786	98.906	727.62	43.5	216.3	795.36	55.55	157.46	574.24	1560.8	306.83	525	1292.3	307.95
604	2.5125	759.32	1313.2	315.43	616.37	1543.5	464.6	617.72	1533.8	146.95	678.55	1828.2	307.04	725.13	1065.6	441.05	733.71	1058.7	188.15	528.21	1085.3	341.49	529.81	1088.3	261.31	661.8	1001.4	489.61	635.44	995.39	134.03	639.58	1142.9	468.65	664.75	1134.9	149.91	514.92	1052.1	304.22	640.18	753	496.21	690.01	667.54	469.64	621.93	666.68	481.44	712.31	755.5	480.92	632.61	551.53	476.02	639.49	543.64	349.52	568.76	328.37	494.11	625.62	260.15	480.07	561.16	251.22	485.28	634.23	335.87	488.62	587.71	112.28	471.92	605.83	112.2	385.17	522.44	74.382	428.62	531.24	43.693	397.81	529.09	43.218	463.34	704.58	36.291	507.02	734.53	44.289	387.45	799.87	54.063	436.38	667.27	733.46	129.53	713.57	645.33	177.12	642.9	646.37	141.89	732.25	737.92	162.25	619.82	551.2	151.32	655.14	543.01	269.21	559.04	326.46	143.48	620.33	262.61	133.72	552.78	254.38	153.43	623.8	334.11	129.03	589.58	111.51	136.72	606.59	108.99	225.47	518.76	72.946	179.38	525.44	46.136	211.73	522.3	47.3	149.68	697.42	45.785	98.906	727.62	43.502	216.3	795.36	55.55	157.46	574.23	1560.8	306.83	524.99	1292.3	307.95
